/* XPM */
static char *db1c644af23e4430a9fc2544c1fa350f0moeh0Io7QoHj8YB[] = {
/* columns rows colors chars-per-pixel */
"128 128 2 1 ",
"  c black",
". c #B4B4B4",
/* pixels */
"                                                                                                                                ",
"                                                                                                                                ",
"                                                                                                                                ",
"                                                                                                                                ",
"    ........................................................................................................................    ",
"    ........................................................................................................................    ",
"    ........................................................................................................................    ",
"    ........................................................................................................................    ",
"    ........................................................................................................................    ",
"    ........................................................................................................................    ",
"    ........................................................................................................................    ",
"    ........................................................................................................................    ",
"    ........................................................................................................................    ",
"    ........................................................................................................................    ",
"    ........................................................................................................................    ",
"    ........................................................................................................................    ",
"    ........................................................................................................................    ",
"    ........................................................................................................................    ",
"    ........................................................................................................................    ",
"    ........................................................................................................................    ",
"    ........................................................................................................................    ",
"    ........................................................................................................................    ",
"    ........................................................................................................................    ",
"    ........................................................................................................................    ",
"    ........................................................................................................................    ",
"    ........................................................................................................................    ",
"    ........................................................................................................................    ",
"    ........................................................................................................................    ",
"    ........................................................................................................................    ",
"    ........................................................................................................................    ",
"    ........................................................................................................................    ",
"    ........................................................................................................................    ",
"    ........................................................................................................................    ",
"    ........................................................................................................................    ",
"    ........................................................................................................................    ",
"    ........................................................................................................................    ",
"    ........................................................................................................................    ",
"    ........................................................................................................................    ",
"    ........................................................................................................................    ",
"    ........................................................................................................................    ",
"    ........................................................................................................................    ",
"    ........................................................................................................................    ",
"    ........................................................................................................................    ",
"    ........................................................................................................................    ",
"    ........................................................................................................................    ",
"    ........................................................................................................................    ",
"    ........................................................................................................................    ",
"    ........................................................................................................................    ",
"    ........................................................................................................................    ",
"    ........................................................................................................................    ",
"    ........................................................................................................................    ",
"    ........................................................................................................................    ",
"    ........................................................................................................................    ",
"    ........................................................................................................................    ",
"    ........................................................................................................................    ",
"    ........................................................................................................................    ",
"    ........................................................................................................................    ",
"    ........................................................................................................................    ",
"    ........................................................................................................................    ",
"    ........................................................................................................................    ",
"    ........................................................................................................................    ",
"    ........................................................................................................................    ",
"    ........................................................................................................................    ",
"    ........................................................................................................................    ",
"    ........................................................................................................................    ",
"    ........................................................................................................................    ",
"    ........................................................................................................................    ",
"    ........................................................................................................................    ",
"    ........................................................................................................................    ",
"    ........................................................................................................................    ",
"    ........................................................................................................................    ",
"    ........................................................................................................................    ",
"    ........................................................................................................................    ",
"    ........................................................................................................................    ",
"    ........................................................................................................................    ",
"    ........................................................................................................................    ",
"    ........................................................................................................................    ",
"    ........................................................................................................................    ",
"    ........................................................................................................................    ",
"    ........................................................................................................................    ",
"    ........................................................................................................................    ",
"    ........................................................................................................................    ",
"    ........................................................................................................................    ",
"    ........................................................................................................................    ",
"    ........................................................................................................................    ",
"    ........................................................................................................................    ",
"    ........................................................................................................................    ",
"    ........................................................................................................................    ",
"    ........................................................................................................................    ",
"    ........................................................................................................................    ",
"    ........................................................................................................................    ",
"    ........................................................................................................................    ",
"    ........................................................................................................................    ",
"    ........................................................................................................................    ",
"    ........................................................................................................................    ",
"    ........................................................................................................................    ",
"    ........................................................................................................................    ",
"    ........................................................................................................................    ",
"    ........................................................................................................................    ",
"    ........................................................................................................................    ",
"    ........................................................................................................................    ",
"    ........................................................................................................................    ",
"    ........................................................................................................................    ",
"    ........................................................................................................................    ",
"    ........................................................................................................................    ",
"    ........................................................................................................................    ",
"    ........................................................................................................................    ",
"    ........................................................................................................................    ",
"    ........................................................................................................................    ",
"    ........................................................................................................................    ",
"    ........................................................................................................................    ",
"    ........................................................................................................................    ",
"    ........................................................................................................................    ",
"    ........................................................................................................................    ",
"    ........................................................................................................................    ",
"    ........................................................................................................................    ",
"    ........................................................................................................................    ",
"    ........................................................................................................................    ",
"    ........................................................................................................................    ",
"    ........................................................................................................................    ",
"    ........................................................................................................................    ",
"    ........................................................................................................................    ",
"    ........................................................................................................................    ",
"    ........................................................................................................................    ",
"                                                                                                                                ",
"                                                                                                                                ",
"                                                                                                                                ",
"                                                                                                                                "
};
